<mxfile host="app.diagrams.net" modified="2021-09-19T11:04:06.548Z" agent="5.0 (Macintosh; Intel Mac OS X 10_15_7) AppleWebKit/605.1.15 (KHTML, like Gecko) Version/14.1.2 Safari/605.1.15" etag="FJwhjLv4nTICnWTyartt" version="15.2.9" type="github">
  <diagram id="Xz1zd2Fq9srYaQUPKxiW" name="Page-1">
    <mxGraphModel dx="727" dy="770" grid="1" gridSize="10" guides="1" tooltips="1" connect="1" arrows="1" fold="1" page="1" pageScale="1" pageWidth="827" pageHeight="1169" math="0" shadow="0">
      <root>
        <mxCell id="0" />
        <mxCell id="1" parent="0" />
        <mxCell id="qSjlCEyF0LNPJPu73GT9-28" value="" style="rounded=0;whiteSpace=wrap;html=1;glass=0;dashed=1;fillColor=#2E4053;sketch=0;shadow=1;opacity=80;" vertex="1" parent="1">
          <mxGeometry x="260" y="400" width="210" height="250" as="geometry" />
        </mxCell>
        <mxCell id="qSjlCEyF0LNPJPu73GT9-17" value="" style="rounded=0;whiteSpace=wrap;html=1;glass=0;dashed=1;fillColor=#D6DBDF;opacity=50;shadow=1;" vertex="1" parent="1">
          <mxGeometry x="260" y="100" width="210" height="250" as="geometry" />
        </mxCell>
        <mxCell id="qSjlCEyF0LNPJPu73GT9-1" value="&lt;font face=&quot;Times New Roman&quot; style=&quot;font-size: 16px&quot;&gt;ignorants&lt;/font&gt;" style="rounded=1;whiteSpace=wrap;html=1;fillColor=#d5e8d4;strokeColor=#82b366;" vertex="1" parent="1">
          <mxGeometry x="80" y="340" width="100" height="50" as="geometry" />
        </mxCell>
        <mxCell id="qSjlCEyF0LNPJPu73GT9-5" value="" style="edgeStyle=orthogonalEdgeStyle;rounded=0;orthogonalLoop=1;jettySize=auto;html=1;" edge="1" parent="1" source="qSjlCEyF0LNPJPu73GT9-3" target="qSjlCEyF0LNPJPu73GT9-4">
          <mxGeometry relative="1" as="geometry" />
        </mxCell>
        <mxCell id="qSjlCEyF0LNPJPu73GT9-3" value="&lt;font face=&quot;Times New Roman&quot; size=&quot;3&quot;&gt;reviewers&lt;br&gt;&lt;/font&gt;" style="rounded=1;whiteSpace=wrap;html=1;fillColor=#ffe6cc;strokeColor=#d79b00;" vertex="1" parent="1">
          <mxGeometry x="350" y="120" width="100" height="50" as="geometry" />
        </mxCell>
        <mxCell id="qSjlCEyF0LNPJPu73GT9-4" value="&lt;font face=&quot;Times New Roman&quot; size=&quot;3&quot;&gt;sharers&lt;br&gt;&lt;/font&gt;" style="rounded=1;whiteSpace=wrap;html=1;fillColor=#f8cecc;strokeColor=#b85450;" vertex="1" parent="1">
          <mxGeometry x="350" y="200" width="100" height="50" as="geometry" />
        </mxCell>
        <mxCell id="qSjlCEyF0LNPJPu73GT9-7" style="edgeStyle=orthogonalEdgeStyle;rounded=0;orthogonalLoop=1;jettySize=auto;html=1;exitX=0.5;exitY=0;exitDx=0;exitDy=0;entryX=0.5;entryY=1;entryDx=0;entryDy=0;" edge="1" parent="1" source="qSjlCEyF0LNPJPu73GT9-6" target="qSjlCEyF0LNPJPu73GT9-4">
          <mxGeometry relative="1" as="geometry" />
        </mxCell>
        <mxCell id="qSjlCEyF0LNPJPu73GT9-6" value="&lt;font face=&quot;Times New Roman&quot; size=&quot;3&quot;&gt;collectors&lt;br&gt;&lt;/font&gt;" style="rounded=1;whiteSpace=wrap;html=1;fillColor=#fff2cc;strokeColor=#d6b656;" vertex="1" parent="1">
          <mxGeometry x="350" y="280" width="100" height="50" as="geometry" />
        </mxCell>
        <mxCell id="qSjlCEyF0LNPJPu73GT9-14" value="" style="endArrow=none;html=1;exitX=1;exitY=0.5;exitDx=0;exitDy=0;edgeStyle=orthogonalEdgeStyle;endFill=0;rounded=0;" edge="1" parent="1" source="qSjlCEyF0LNPJPu73GT9-1">
          <mxGeometry width="50" height="50" relative="1" as="geometry">
            <mxPoint x="370" y="640" as="sourcePoint" />
            <mxPoint x="309" y="225" as="targetPoint" />
            <Array as="points">
              <mxPoint x="240" y="365" />
              <mxPoint x="240" y="225" />
            </Array>
          </mxGeometry>
        </mxCell>
        <mxCell id="qSjlCEyF0LNPJPu73GT9-33" style="edgeStyle=orthogonalEdgeStyle;rounded=0;orthogonalLoop=1;jettySize=auto;html=1;exitX=0.5;exitY=1;exitDx=0;exitDy=0;startArrow=classic;startFill=1;endArrow=classic;endFill=1;" edge="1" parent="1" source="qSjlCEyF0LNPJPu73GT9-17" target="qSjlCEyF0LNPJPu73GT9-28">
          <mxGeometry relative="1" as="geometry" />
        </mxCell>
        <mxCell id="qSjlCEyF0LNPJPu73GT9-20" value="" style="endArrow=none;html=1;entryX=0;entryY=0.5;entryDx=0;entryDy=0;edgeStyle=orthogonalEdgeStyle;rounded=0;startArrow=classic;startFill=1;" edge="1" parent="1" target="qSjlCEyF0LNPJPu73GT9-17">
          <mxGeometry width="50" height="50" relative="1" as="geometry">
            <mxPoint x="350" y="145" as="sourcePoint" />
            <mxPoint x="360" y="430" as="targetPoint" />
            <Array as="points">
              <mxPoint x="300" y="145" />
              <mxPoint x="300" y="225" />
            </Array>
          </mxGeometry>
        </mxCell>
        <mxCell id="qSjlCEyF0LNPJPu73GT9-21" value="" style="endArrow=none;html=1;entryX=0;entryY=0.5;entryDx=0;entryDy=0;startArrow=classic;startFill=1;exitX=0;exitY=0.5;exitDx=0;exitDy=0;edgeStyle=orthogonalEdgeStyle;rounded=0;" edge="1" parent="1" source="qSjlCEyF0LNPJPu73GT9-6" target="qSjlCEyF0LNPJPu73GT9-17">
          <mxGeometry width="50" height="50" relative="1" as="geometry">
            <mxPoint x="370" y="640" as="sourcePoint" />
            <mxPoint x="420" y="590" as="targetPoint" />
            <Array as="points">
              <mxPoint x="300" y="305" />
              <mxPoint x="300" y="225" />
            </Array>
          </mxGeometry>
        </mxCell>
        <mxCell id="qSjlCEyF0LNPJPu73GT9-22" value="" style="endArrow=classic;html=1;exitX=0;exitY=0.5;exitDx=0;exitDy=0;endFill=1;" edge="1" parent="1" source="qSjlCEyF0LNPJPu73GT9-17">
          <mxGeometry width="50" height="50" relative="1" as="geometry">
            <mxPoint x="370" y="640" as="sourcePoint" />
            <mxPoint x="350" y="225" as="targetPoint" />
          </mxGeometry>
        </mxCell>
        <mxCell id="qSjlCEyF0LNPJPu73GT9-23" value="" style="edgeStyle=orthogonalEdgeStyle;rounded=0;orthogonalLoop=1;jettySize=auto;html=1;strokeColor=#FFFFFF;" edge="1" parent="1" source="qSjlCEyF0LNPJPu73GT9-24" target="qSjlCEyF0LNPJPu73GT9-25">
          <mxGeometry relative="1" as="geometry" />
        </mxCell>
        <mxCell id="qSjlCEyF0LNPJPu73GT9-24" value="&lt;font face=&quot;Times New Roman&quot; size=&quot;3&quot;&gt;reviewers&lt;br&gt;&lt;/font&gt;" style="rounded=1;whiteSpace=wrap;html=1;fillColor=#ffe6cc;strokeColor=#d79b00;" vertex="1" parent="1">
          <mxGeometry x="350" y="420" width="100" height="50" as="geometry" />
        </mxCell>
        <mxCell id="qSjlCEyF0LNPJPu73GT9-64" value="" style="edgeStyle=orthogonalEdgeStyle;rounded=0;orthogonalLoop=1;jettySize=auto;html=1;labelBackgroundColor=#FFFFFF;fontFamily=Times New Roman;fontColor=#FFFFFF;startArrow=none;startFill=0;endArrow=none;endFill=0;strokeColor=#FFFFFF;" edge="1" parent="1" source="qSjlCEyF0LNPJPu73GT9-25">
          <mxGeometry relative="1" as="geometry">
            <mxPoint x="520" y="525" as="targetPoint" />
          </mxGeometry>
        </mxCell>
        <mxCell id="qSjlCEyF0LNPJPu73GT9-25" value="&lt;font face=&quot;Times New Roman&quot; size=&quot;3&quot;&gt;sharers&lt;br&gt;&lt;/font&gt;" style="rounded=1;whiteSpace=wrap;html=1;fillColor=#f8cecc;strokeColor=#b85450;" vertex="1" parent="1">
          <mxGeometry x="350" y="500" width="100" height="50" as="geometry" />
        </mxCell>
        <mxCell id="qSjlCEyF0LNPJPu73GT9-26" style="edgeStyle=orthogonalEdgeStyle;rounded=0;orthogonalLoop=1;jettySize=auto;html=1;exitX=0.5;exitY=0;exitDx=0;exitDy=0;entryX=0.5;entryY=1;entryDx=0;entryDy=0;strokeColor=#FFFFFF;" edge="1" parent="1" source="qSjlCEyF0LNPJPu73GT9-27" target="qSjlCEyF0LNPJPu73GT9-25">
          <mxGeometry relative="1" as="geometry" />
        </mxCell>
        <mxCell id="qSjlCEyF0LNPJPu73GT9-27" value="&lt;font face=&quot;Times New Roman&quot; size=&quot;3&quot;&gt;collectors&lt;br&gt;&lt;/font&gt;" style="rounded=1;whiteSpace=wrap;html=1;fillColor=#fff2cc;strokeColor=#d6b656;" vertex="1" parent="1">
          <mxGeometry x="350" y="580" width="100" height="50" as="geometry" />
        </mxCell>
        <mxCell id="qSjlCEyF0LNPJPu73GT9-29" value="" style="endArrow=none;html=1;entryX=0;entryY=0.5;entryDx=0;entryDy=0;edgeStyle=orthogonalEdgeStyle;rounded=0;startArrow=classic;startFill=1;strokeColor=#FFFFFF;" edge="1" parent="1" target="qSjlCEyF0LNPJPu73GT9-28">
          <mxGeometry width="50" height="50" relative="1" as="geometry">
            <mxPoint x="350" y="445" as="sourcePoint" />
            <mxPoint x="360" y="730" as="targetPoint" />
            <Array as="points">
              <mxPoint x="300" y="445" />
              <mxPoint x="300" y="525" />
            </Array>
          </mxGeometry>
        </mxCell>
        <mxCell id="qSjlCEyF0LNPJPu73GT9-30" value="" style="endArrow=none;html=1;entryX=0;entryY=0.5;entryDx=0;entryDy=0;startArrow=classic;startFill=1;exitX=0;exitY=0.5;exitDx=0;exitDy=0;edgeStyle=orthogonalEdgeStyle;rounded=0;strokeColor=#FFFFFF;" edge="1" parent="1" source="qSjlCEyF0LNPJPu73GT9-27" target="qSjlCEyF0LNPJPu73GT9-28">
          <mxGeometry width="50" height="50" relative="1" as="geometry">
            <mxPoint x="370" y="940" as="sourcePoint" />
            <mxPoint x="420" y="890" as="targetPoint" />
            <Array as="points">
              <mxPoint x="300" y="605" />
              <mxPoint x="300" y="525" />
            </Array>
          </mxGeometry>
        </mxCell>
        <mxCell id="qSjlCEyF0LNPJPu73GT9-31" value="" style="endArrow=classic;html=1;exitX=0;exitY=0.5;exitDx=0;exitDy=0;endFill=1;labelBackgroundColor=#FFFFFF;fontColor=#FFFFFF;strokeColor=#FFFFFF;" edge="1" parent="1" source="qSjlCEyF0LNPJPu73GT9-28">
          <mxGeometry width="50" height="50" relative="1" as="geometry">
            <mxPoint x="370" y="940" as="sourcePoint" />
            <mxPoint x="350" y="525" as="targetPoint" />
          </mxGeometry>
        </mxCell>
        <mxCell id="qSjlCEyF0LNPJPu73GT9-32" value="" style="endArrow=none;html=1;exitX=1;exitY=0.5;exitDx=0;exitDy=0;edgeStyle=orthogonalEdgeStyle;endFill=0;rounded=0;entryX=0;entryY=0.5;entryDx=0;entryDy=0;" edge="1" parent="1" source="qSjlCEyF0LNPJPu73GT9-1" target="qSjlCEyF0LNPJPu73GT9-28">
          <mxGeometry width="50" height="50" relative="1" as="geometry">
            <mxPoint x="190" y="375" as="sourcePoint" />
            <mxPoint x="319" y="235" as="targetPoint" />
            <Array as="points">
              <mxPoint x="240" y="365" />
              <mxPoint x="240" y="525" />
            </Array>
          </mxGeometry>
        </mxCell>
        <mxCell id="qSjlCEyF0LNPJPu73GT9-34" value="&lt;font face=&quot;Times New Roman&quot; style=&quot;font-size: 16px&quot;&gt;stiflers 1&lt;/font&gt;" style="rounded=1;whiteSpace=wrap;html=1;fillColor=#dae8fc;strokeColor=#6c8ebf;" vertex="1" parent="1">
          <mxGeometry x="520" y="200" width="100" height="50" as="geometry" />
        </mxCell>
        <mxCell id="qSjlCEyF0LNPJPu73GT9-35" value="&lt;font face=&quot;Times New Roman&quot; style=&quot;font-size: 16px&quot;&gt;stiflers 2&lt;/font&gt;" style="rounded=1;whiteSpace=wrap;html=1;fillColor=#e1d5e7;strokeColor=#9673a6;" vertex="1" parent="1">
          <mxGeometry x="520" y="500" width="100" height="50" as="geometry" />
        </mxCell>
        <mxCell id="qSjlCEyF0LNPJPu73GT9-39" value="" style="endArrow=classic;html=1;exitX=1;exitY=0.5;exitDx=0;exitDy=0;entryX=0;entryY=0.5;entryDx=0;entryDy=0;" edge="1" parent="1" source="qSjlCEyF0LNPJPu73GT9-25" target="qSjlCEyF0LNPJPu73GT9-35">
          <mxGeometry width="50" height="50" relative="1" as="geometry">
            <mxPoint x="370" y="650" as="sourcePoint" />
            <mxPoint x="420" y="600" as="targetPoint" />
          </mxGeometry>
        </mxCell>
        <mxCell id="qSjlCEyF0LNPJPu73GT9-40" value="" style="endArrow=classic;html=1;exitX=1;exitY=0.5;exitDx=0;exitDy=0;entryX=0;entryY=0.5;entryDx=0;entryDy=0;" edge="1" parent="1" source="qSjlCEyF0LNPJPu73GT9-4" target="qSjlCEyF0LNPJPu73GT9-34">
          <mxGeometry width="50" height="50" relative="1" as="geometry">
            <mxPoint x="370" y="650" as="sourcePoint" />
            <mxPoint x="420" y="600" as="targetPoint" />
          </mxGeometry>
        </mxCell>
        <mxCell id="qSjlCEyF0LNPJPu73GT9-41" value="" style="endArrow=classic;html=1;exitX=0.5;exitY=1;exitDx=0;exitDy=0;entryX=0.5;entryY=1;entryDx=0;entryDy=0;edgeStyle=orthogonalEdgeStyle;rounded=0;" edge="1" parent="1" source="qSjlCEyF0LNPJPu73GT9-1" target="qSjlCEyF0LNPJPu73GT9-35">
          <mxGeometry width="50" height="50" relative="1" as="geometry">
            <mxPoint x="170" y="450" as="sourcePoint" />
            <mxPoint x="420" y="600" as="targetPoint" />
            <Array as="points">
              <mxPoint x="130" y="680" />
              <mxPoint x="570" y="680" />
            </Array>
          </mxGeometry>
        </mxCell>
        <mxCell id="qSjlCEyF0LNPJPu73GT9-43" value="" style="endArrow=classic;html=1;exitX=0.5;exitY=0;exitDx=0;exitDy=0;entryX=0.5;entryY=0;entryDx=0;entryDy=0;edgeStyle=orthogonalEdgeStyle;rounded=0;" edge="1" parent="1" source="qSjlCEyF0LNPJPu73GT9-1" target="qSjlCEyF0LNPJPu73GT9-34">
          <mxGeometry width="50" height="50" relative="1" as="geometry">
            <mxPoint x="370" y="610" as="sourcePoint" />
            <mxPoint x="420" y="560" as="targetPoint" />
            <Array as="points">
              <mxPoint x="130" y="70" />
              <mxPoint x="570" y="70" />
            </Array>
          </mxGeometry>
        </mxCell>
        <mxCell id="qSjlCEyF0LNPJPu73GT9-44" value="δ1" style="text;html=1;strokeColor=none;fillColor=none;align=center;verticalAlign=middle;whiteSpace=wrap;rounded=0;glass=1;dashed=1;fontFamily=Times New Roman;" vertex="1" parent="1">
          <mxGeometry x="470" y="200" width="40" height="20" as="geometry" />
        </mxCell>
        <mxCell id="qSjlCEyF0LNPJPu73GT9-45" value="Spreader" style="text;html=1;strokeColor=none;fillColor=none;align=center;verticalAlign=middle;whiteSpace=wrap;rounded=0;glass=1;dashed=1;fontFamily=Times New Roman;" vertex="1" parent="1">
          <mxGeometry x="270" y="110" width="40" height="20" as="geometry" />
        </mxCell>
        <mxCell id="qSjlCEyF0LNPJPu73GT9-46" value="Counter&lt;br&gt;Spreader" style="text;html=1;strokeColor=none;fillColor=none;align=left;verticalAlign=middle;whiteSpace=wrap;rounded=0;glass=1;dashed=1;fontFamily=Times New Roman;fontColor=#FFFFFF;" vertex="1" parent="1">
          <mxGeometry x="270" y="410" width="40" height="20" as="geometry" />
        </mxCell>
        <mxCell id="qSjlCEyF0LNPJPu73GT9-63" value="" style="edgeStyle=orthogonalEdgeStyle;rounded=0;orthogonalLoop=1;jettySize=auto;html=1;labelBackgroundColor=#FFFFFF;fontFamily=Times New Roman;fontColor=#FFFFFF;startArrow=none;startFill=0;endArrow=none;endFill=0;strokeColor=#FFFFFF;" edge="1" parent="1">
          <mxGeometry relative="1" as="geometry">
            <mxPoint x="470" y="525" as="sourcePoint" />
            <mxPoint x="450" y="525" as="targetPoint" />
            <Array as="points">
              <mxPoint x="470" y="525" />
            </Array>
          </mxGeometry>
        </mxCell>
        <mxCell id="qSjlCEyF0LNPJPu73GT9-47" value="δ2" style="text;html=1;strokeColor=none;fillColor=none;align=center;verticalAlign=middle;whiteSpace=wrap;rounded=0;glass=1;dashed=1;fontFamily=Times New Roman;" vertex="1" parent="1">
          <mxGeometry x="470" y="500" width="40" height="20" as="geometry" />
        </mxCell>
        <mxCell id="qSjlCEyF0LNPJPu73GT9-48" value="α1" style="text;html=1;strokeColor=none;fillColor=none;align=center;verticalAlign=middle;whiteSpace=wrap;rounded=0;glass=1;dashed=1;fontFamily=Times New Roman;" vertex="1" parent="1">
          <mxGeometry x="300" y="150" width="40" height="20" as="geometry" />
        </mxCell>
        <mxCell id="qSjlCEyF0LNPJPu73GT9-49" value="α2" style="text;html=1;strokeColor=none;fillColor=none;align=center;verticalAlign=middle;whiteSpace=wrap;rounded=0;glass=1;dashed=1;fontFamily=Times New Roman;fontColor=#FFFFFF;" vertex="1" parent="1">
          <mxGeometry x="300" y="450" width="40" height="20" as="geometry" />
        </mxCell>
        <mxCell id="qSjlCEyF0LNPJPu73GT9-50" value="β1" style="text;html=1;strokeColor=none;fillColor=none;align=center;verticalAlign=middle;whiteSpace=wrap;rounded=0;glass=1;dashed=1;fontFamily=Times New Roman;" vertex="1" parent="1">
          <mxGeometry x="300" y="200" width="40" height="20" as="geometry" />
        </mxCell>
        <mxCell id="qSjlCEyF0LNPJPu73GT9-51" value="β2" style="text;html=1;strokeColor=none;fillColor=none;align=center;verticalAlign=middle;whiteSpace=wrap;rounded=0;glass=1;dashed=1;fontFamily=Times New Roman;fontColor=#FFFFFF;" vertex="1" parent="1">
          <mxGeometry x="300" y="500" width="40" height="20" as="geometry" />
        </mxCell>
        <mxCell id="qSjlCEyF0LNPJPu73GT9-52" value="γ1" style="text;html=1;strokeColor=none;fillColor=none;align=center;verticalAlign=middle;whiteSpace=wrap;rounded=0;glass=1;dashed=1;fontFamily=Times New Roman;" vertex="1" parent="1">
          <mxGeometry x="300" y="280" width="40" height="20" as="geometry" />
        </mxCell>
        <mxCell id="qSjlCEyF0LNPJPu73GT9-53" value="γ2" style="text;html=1;strokeColor=none;fillColor=none;align=center;verticalAlign=middle;whiteSpace=wrap;rounded=0;glass=1;dashed=1;fontFamily=Times New Roman;fontColor=#FFFFFF;" vertex="1" parent="1">
          <mxGeometry x="300" y="580" width="40" height="20" as="geometry" />
        </mxCell>
        <mxCell id="qSjlCEyF0LNPJPu73GT9-54" value="η1" style="text;html=1;strokeColor=none;fillColor=none;align=center;verticalAlign=middle;whiteSpace=wrap;rounded=0;glass=1;dashed=1;fontFamily=Times New Roman;" vertex="1" parent="1">
          <mxGeometry x="394" y="170" width="40" height="20" as="geometry" />
        </mxCell>
        <mxCell id="qSjlCEyF0LNPJPu73GT9-55" value="η2" style="text;html=1;strokeColor=none;fillColor=none;align=center;verticalAlign=middle;whiteSpace=wrap;rounded=0;glass=1;dashed=1;fontFamily=Times New Roman;fontColor=#FFFFFF;" vertex="1" parent="1">
          <mxGeometry x="394" y="470" width="40" height="20" as="geometry" />
        </mxCell>
        <mxCell id="qSjlCEyF0LNPJPu73GT9-56" value="μ1" style="text;html=1;strokeColor=none;fillColor=none;align=center;verticalAlign=middle;whiteSpace=wrap;rounded=0;glass=1;dashed=1;fontFamily=Times New Roman;" vertex="1" parent="1">
          <mxGeometry x="394" y="250" width="40" height="20" as="geometry" />
        </mxCell>
        <mxCell id="qSjlCEyF0LNPJPu73GT9-57" value="μ2" style="text;html=1;strokeColor=none;fillColor=none;align=center;verticalAlign=middle;whiteSpace=wrap;rounded=0;glass=1;dashed=1;fontFamily=Times New Roman;fontColor=#FFFFFF;" vertex="1" parent="1">
          <mxGeometry x="400" y="550" width="40" height="20" as="geometry" />
        </mxCell>
        <mxCell id="qSjlCEyF0LNPJPu73GT9-58" value="θ1" style="text;html=1;strokeColor=none;fillColor=none;align=center;verticalAlign=middle;whiteSpace=wrap;rounded=0;glass=1;dashed=1;fontFamily=Times New Roman;" vertex="1" parent="1">
          <mxGeometry x="130" y="310" width="40" height="20" as="geometry" />
        </mxCell>
        <mxCell id="qSjlCEyF0LNPJPu73GT9-59" value="θ2" style="text;html=1;strokeColor=none;fillColor=none;align=center;verticalAlign=middle;whiteSpace=wrap;rounded=0;glass=1;dashed=1;fontFamily=Times New Roman;" vertex="1" parent="1">
          <mxGeometry x="130" y="400" width="40" height="20" as="geometry" />
        </mxCell>
        <mxCell id="qSjlCEyF0LNPJPu73GT9-60" value="ω" style="text;html=1;strokeColor=none;fillColor=none;align=center;verticalAlign=middle;whiteSpace=wrap;rounded=0;glass=1;dashed=1;fontFamily=Times New Roman;" vertex="1" parent="1">
          <mxGeometry x="360" y="360" width="40" height="20" as="geometry" />
        </mxCell>
        <mxCell id="qSjlCEyF0LNPJPu73GT9-61" value="λ1" style="text;html=1;strokeColor=none;fillColor=none;align=center;verticalAlign=middle;whiteSpace=wrap;rounded=0;glass=1;dashed=1;fontFamily=Times New Roman;" vertex="1" parent="1">
          <mxGeometry x="210" y="300" width="40" height="20" as="geometry" />
        </mxCell>
        <mxCell id="qSjlCEyF0LNPJPu73GT9-62" value="λ2" style="text;html=1;strokeColor=none;fillColor=none;align=center;verticalAlign=middle;whiteSpace=wrap;rounded=0;glass=1;dashed=1;fontFamily=Times New Roman;" vertex="1" parent="1">
          <mxGeometry x="210" y="410" width="40" height="20" as="geometry" />
        </mxCell>
        <mxCell id="qSjlCEyF0LNPJPu73GT9-67" value="" style="endArrow=classic;html=1;labelBackgroundColor=#FFFFFF;fontFamily=Times New Roman;fontColor=#FFFFFF;strokeColor=#000000;entryX=0.5;entryY=1;entryDx=0;entryDy=0;exitX=1;exitY=0.5;exitDx=0;exitDy=0;" edge="1" parent="1" source="qSjlCEyF0LNPJPu73GT9-25" target="qSjlCEyF0LNPJPu73GT9-34">
          <mxGeometry width="50" height="50" relative="1" as="geometry">
            <mxPoint x="290" y="430" as="sourcePoint" />
            <mxPoint x="340" y="380" as="targetPoint" />
          </mxGeometry>
        </mxCell>
        <mxCell id="qSjlCEyF0LNPJPu73GT9-68" value="" style="endArrow=classic;html=1;labelBackgroundColor=#FFFFFF;fontFamily=Times New Roman;fontColor=#FFFFFF;strokeColor=#000000;entryX=0.5;entryY=0;entryDx=0;entryDy=0;exitX=1;exitY=0.5;exitDx=0;exitDy=0;" edge="1" parent="1" source="qSjlCEyF0LNPJPu73GT9-4" target="qSjlCEyF0LNPJPu73GT9-35">
          <mxGeometry width="50" height="50" relative="1" as="geometry">
            <mxPoint x="460" y="535" as="sourcePoint" />
            <mxPoint x="580" y="260" as="targetPoint" />
          </mxGeometry>
        </mxCell>
        <mxCell id="qSjlCEyF0LNPJPu73GT9-69" value="" style="endArrow=none;html=1;labelBackgroundColor=#FFFFFF;fontFamily=Times New Roman;fontColor=#FFFFFF;strokeColor=#FFFFFF;exitX=1;exitY=0.5;exitDx=0;exitDy=0;" edge="1" parent="1" source="qSjlCEyF0LNPJPu73GT9-25">
          <mxGeometry width="50" height="50" relative="1" as="geometry">
            <mxPoint x="290" y="430" as="sourcePoint" />
            <mxPoint x="470" y="480" as="targetPoint" />
          </mxGeometry>
        </mxCell>
      </root>
    </mxGraphModel>
  </diagram>
</mxfile>
